<svg xmlns="http://www.w3.org/2000/svg" width="218.84908" height="271.61227" viewBox="0 0 218.84907 271.61227"><defs><clipPath id="a" clipPathUnits="userSpaceOnUse"><path d="M0 220h220V0H0Z"/></clipPath></defs><g clip-path="url(#a)" transform="matrix(1.33333 0 0 -1.33333 -37.242 282.473)"><path d="M0 0v10.086c-5.727 0-12.835 2.078-19.59 5.492-7.149 3.613-13.463 8.681-18.435 14.961v.078h.089c7.968 4.483 12.783 10.724 14.715 18.951 1.991 8.482.711 18.783-3.878 30.573-2.335 6-5.257 11.754-8.685 17.203l-11.913-10.961c4.001-3.07 8.536-9.157 11.868-15.914 3.919-7.947 5.643-15.893 5.178-22.414-.246-3.437-1.301-6.768-3.232-9.623a18.994 18.994 0 0 0-7.729-6.582c3.228-9.392 14.11-26.101 34.641-29.519h.078v-.067c.536-7.181-.665-14.394-3.552-20.992-1.854-4.236-4.676-8-8.293-10.881-4.315-3.437-9.543-5.535-15.017-6.208a51.596 51.596 0 0 1 3.361-2.41C-2.97-34.854 0-10.366 0 0" style="fill:#000;fill-opacity:1;fill-rule:nonzero;stroke:none" transform="translate(106.912 114.51)"/><path d="M0 0c3.325 6.742 7.845 12.843 11.867 15.914L-.045 26.875A102.144 102.144 0 0 1-8.63 9.717c-4.56-11.801-5.872-22.089-3.878-30.573 1.928-8.226 6.725-14.423 14.715-18.951h.09l-.068-.078c-4.937-6.33-11.257-11.422-18.423-15.04-6.747-3.407-13.874-5.447-19.59-5.492v-10.086c0-10.367 2.959-34.854 30.404-38.215a51.59 51.59 0 0 1 3.362 2.409c-5.478.676-10.713 2.767-15.028 6.208-3.615 2.883-6.435 6.648-8.294 10.883-2.893 6.593-4.088 13.809-3.552 20.99v.067h.067c20.531 3.419 31.38 20.173 34.64 29.519a19.054 19.054 0 0 0-7.727 6.592c-1.933 2.855-2.992 6.186-3.243 9.625C-5.633-15.893-3.909-7.925 0 0" style="fill:#000;fill-opacity:1;fill-rule:nonzero;stroke:none" transform="translate(148.96 184.98)"/><path d="M0 0a50.29 50.29 0 0 1-1.389-3.945c21.415-16.997 29.75-45.68 20.78-71.507-8.971-25.826-33.293-43.167-60.634-43.228-27.34-.061-51.739 17.17-60.826 42.956-9.086 25.787-.879 54.508 20.461 71.6a50.704 50.704 0 0 1-1.379 3.967c-24.494-17.984-34.649-49.692-25.159-78.56 9.49-28.867 36.478-48.365 66.865-48.307 30.387.057 57.301 19.657 66.681 48.56C34.781-49.561 24.507-17.891-.056 0Z" style="fill:#ff2b07;fill-opacity:1;fill-rule:nonzero;stroke:none" transform="translate(151.414 180.127)"/><path d="M0 0a83.682 83.682 0 0 0 1.054 3.945 70.175 70.175 0 0 1-47.07 0c.381-1.289.74-2.612 1.053-3.945C-30.946 5.257-14.901 5.589 0 0" style="fill:#ff2b07;fill-opacity:1;fill-rule:nonzero;stroke:none" transform="translate(132.44 185.853)"/><path d="M0 0h-4.676v-3.12h4.507c.846 0 1.474.121 1.874.363.398.242.604.629.604 1.148v.109c0 .533-.183.92-.545 1.148C1.415-.121.822 0 0 0m-4.676-5.745v-3.942h-3.069V2.637H.084c1.728 0 3.046-.364 3.951-1.102C4.929.81 5.388-.217 5.388-1.537v-.108c0-.932-.228-1.73-.663-2.407-.339-.521-.883-.943-1.608-1.258l2.827-4.377H2.236L-.048-5.745z" style="fill:#000;fill-opacity:1;fill-rule:nonzero;stroke:none" transform="translate(101.215 171.374)"/><path d="M0 0v12.324h12.724V9.687H3.25V7.365h8.556V4.824H3.25V0Z" style="fill:#000;fill-opacity:1;fill-rule:nonzero;stroke:none" transform="translate(113.806 161.686)"/><path d="M0 0v12.326h12.724V9.688H3.25V7.366h8.556v-2.54H3.25V0Z" style="fill:#000;fill-opacity:1;fill-rule:nonzero;stroke:none" transform="translate(113.806 142.842)"/><path d="M0 0h13.229v-2.638h-9.98v-2.115h8.713v-2.542H3.249v-2.394h10.09v-2.637H0Z" style="fill:#000;fill-opacity:1;fill-rule:nonzero;stroke:none" transform="translate(93.47 155.167)"/><path d="M0 0c-.905.673-2.324 1.138-4.255 1.397l-2.951.39c-1.654.224-2.48.692-2.48 1.403v.073c0 .452.256.783.769.991.513.208 1.331.312 2.454.312h.262a10.5 10.5 0 0 0 2.924-.412c.953-.274 1.795-.662 2.525-1.163L.751 5.29a10.974 10.974 0 0 1-3.19 1.422c-1.096.283-2.395.426-3.898.426h-.272c-2.112 0-3.719-.34-4.82-1.019-1.101-.679-1.652-1.673-1.652-2.983v-.073c0-1.14.424-2.036 1.272-2.688.848-.652 2.165-1.099 3.951-1.34l2.951-.389c1.062-.139 1.826-.323 2.29-.552.466-.23.698-.537.698-.923v-.082c0-.464-.288-.806-.864-1.023-.577-.217-1.475-.326-2.694-.326h-.226c-1.183 0-2.366.156-3.549.467-1.183.311-2.193.734-3.032 1.272l-1.277-2.481a13.92 13.92 0 0 1 3.612-1.417c1.274-.305 2.695-.457 4.264-.457h.244c2.305 0 4.015.33 5.129.991 1.113.661 1.67 1.674 1.67 3.037v.073C1.358-1.599.905-.673 0 0" style="fill:#000;fill-opacity:1;fill-rule:nonzero;stroke:none" transform="translate(41.493 29.446)"/><path d="M0 0c0-3.162-1.526-4.742-4.581-4.742h-.144c-3.156 0-4.734 1.58-4.734 4.742v6.084h-3.332V.2c0-5.202 2.689-7.804 8.066-7.804h.144C.694-7.604 3.331-5.002 3.331.2v5.884H0Z" style="fill:#000;fill-opacity:1;fill-rule:nonzero;stroke:none" transform="translate(58.858 30.174)"/><path d="M0 0c0-.538-.203-.931-.605-1.183-.405-.25-1.039-.375-1.902-.375h-4.689v3.377h4.879c.826 0 1.42-.121 1.779-.362S0 .817 0 .262Zm-1.855 4.68h-8.672V-8.673h3.331v4.264h5.341c1.75 0 3.053.365 3.906 1.096.854.73 1.282 1.842 1.282 3.339v.218c0 1.496-.428 2.61-1.282 3.34-.853.73-2.156 1.096-3.906 1.096" style="fill:#000;fill-opacity:1;fill-rule:nonzero;stroke:none" transform="translate(76.973 31.578)"/><path d="M0 0h9.641v2.742H0v2.3h11.017v2.86H-3.331V-5.45h14.456v2.851H0Z" style="fill:#000;fill-opacity:1;fill-rule:nonzero;stroke:none" transform="translate(87.081 28.355)"/><path d="M0 0c0-.567-.217-.982-.647-1.245-.433-.262-1.113-.394-2.043-.394h-4.879v3.377h5.062c.893 0 1.533-.126 1.923-.376C-.194 1.111 0 .693 0 .108Zm3.331-.036v.108c0 1.449-.491 2.565-1.471 3.35-.981.784-2.407 1.177-4.278 1.177H-10.9V-8.754h3.331v4.264h5.006l2.491-4.264h4.017L.887-4.01c1.628.711 2.444 2.036 2.444 3.974" style="fill:#000;fill-opacity:1;fill-rule:nonzero;stroke:none" transform="translate(112.948 31.66)"/><path d="M0 0h-.146c-1.738 0-3.129.372-4.177 1.117-1.048.746-1.57 1.737-1.57 2.974v.108c0 1.238.524 2.231 1.575 2.979 1.05.748 2.44 1.123 4.172 1.123H0c1.23 0 2.291-.158 3.183-.476.889-.317 1.774-.849 2.655-1.597l2.047 2.144a10.1 10.1 0 0 1-3.481 2.101c-1.282.453-2.752.679-4.404.679h-.146c-1.78 0-3.36-.29-4.738-.869-1.38-.58-2.449-1.396-3.209-2.449-.76-1.053-1.141-2.259-1.141-3.616v-.145c0-1.358.381-2.563 1.141-3.617.76-1.053 1.829-1.869 3.209-2.448 1.378-.58 2.958-.869 4.738-.869H0c3.361 0 6.031.971 8.012 2.915L5.957 2.218C4.333.739 2.348 0 0 0" style="fill:#000;fill-opacity:1;fill-rule:nonzero;stroke:none" transform="translate(128.611 25.432)"/><path d="M0 0c0-1.231-.49-2.218-1.471-2.961-.981-.742-2.284-1.112-3.906-1.112h-.145c-1.624 0-2.926.37-3.908 1.112-.979.743-1.47 1.73-1.47 2.961v.108c0 1.244.493 2.241 1.475 2.993.985.751 2.285 1.127 3.903 1.127h.145c1.616 0 2.917-.376 3.901-1.127C-.491 2.349 0 1.352 0 .108Zm.924 5.178c-.762.597-1.682 1.063-2.761 1.398-1.082.335-2.261.503-3.54.503h-.145c-1.279 0-2.459-.17-3.54-.507-1.08-.339-2.001-.809-2.76-1.412a6.377 6.377 0 0 1-1.781-2.205A6.347 6.347 0 0 1-14.24.126v-.145c0-1.357.366-2.561 1.095-3.611.731-1.051 1.756-1.863 3.078-2.439 1.322-.577 2.837-.866 4.545-.866h.145c1.707 0 3.222.288 4.544.861 1.321.573 2.347 1.38 3.077 2.421.732 1.041 1.096 2.234 1.096 3.58v.262A6.228 6.228 0 0 1 .924 5.178" style="fill:#000;fill-opacity:1;fill-rule:nonzero;stroke:none" transform="translate(152.992 29.505)"/><path d="M0 0c0-.538-.203-.931-.606-1.183-.405-.25-1.039-.375-1.902-.375h-4.689v3.377h4.88c.826 0 1.419-.121 1.779-.362C-.18 1.216 0 .817 0 .262Zm-1.855 4.68h-8.672V-8.673h3.33v4.264h5.342c1.75 0 3.052.365 3.905 1.096.854.73 1.282 1.842 1.282 3.339v.218c0 1.496-.428 2.61-1.282 3.34-.853.73-2.155 1.096-3.905 1.096" style="fill:#000;fill-opacity:1;fill-rule:nonzero;stroke:none" transform="translate(170.572 31.578)"/><path d="m0 0 2.652 5.983.353 1.025h.263l.353-1.025L6.255 0Zm5.901 8.438H.561L-5.541-4.915h3.378l1.058 2.39h8.456l1.05-2.39h3.603z" style="fill:#000;fill-opacity:1;fill-rule:nonzero;stroke:none" transform="translate(180.065 27.82)"/><path d="M0 0c0-.611-.208-1.08-.624-1.404-.415-.325-1.014-.487-1.795-.487h-2.174v3.912h2.174c.784 0 1.384-.163 1.798-.485C-.207 1.213 0 .746 0 .135Zm-2.229 3.485H-6.28v-6.836h4.051c1.272 0 2.247.288 2.924.864C1.372-1.911 1.71-1.081 1.71 0v.135c0 1.081-.338 1.909-1.015 2.485-.677.576-1.652.865-2.924.865" style="fill:#000;fill-opacity:1;fill-rule:nonzero;stroke:none" transform="translate(71.225 11.668)"/><path d="M0 0v1.33h4.937v1.404H0v1.177h5.641v1.465h-7.346V-1.46h7.401V0Z" style="fill:#000;fill-opacity:1;fill-rule:nonzero;stroke:none" transform="translate(77.924 9.777)"/><path d="M0 0h4.936v1.404H0v1.177h5.641v1.465h-7.347V-2.79h7.402v1.46H0Z" style="fill:#000;fill-opacity:1;fill-rule:nonzero;stroke:none" transform="translate(94.483 11.107)"/><path d="m0 0-1.511.199c-.846.114-1.27.354-1.27.719v.037c0 .232.132.399.394.507.263.106.681.16 1.256.16h.134c.51 0 1.009-.071 1.497-.212.489-.14.92-.338 1.294-.595l.769 1.178a5.64 5.64 0 0 1-1.634.728c-.561.145-1.225.217-1.995.217h-.139c-1.082 0-1.905-.174-2.469-.522-.564-.348-.845-.855-.845-1.526V.853c0-.584.216-1.043.65-1.376.434-.334 1.11-.563 2.024-.687l1.512-.199C.21-1.48.601-1.574.839-1.691c.238-.119.357-.276.357-.473v-.042c0-.238-.149-.413-.444-.523-.294-.112-.753-.167-1.377-.167h-.117c-.605 0-1.211.078-1.817.237-.605.159-1.123.377-1.552.652l-.654-1.27a7.146 7.146 0 0 1 1.85-.726 9.394 9.394 0 0 1 2.183-.233h.125c1.18 0 2.055.168 2.625.507.57.337.856.857.856 1.555v.037c0 .603-.232 1.075-.696 1.42C1.715-.372.989-.133 0 0" style="fill:#000;fill-opacity:1;fill-rule:nonzero;stroke:none" transform="translate(107.837 12.382)"/><path d="M0 0c0-.274-.104-.477-.311-.605-.207-.128-.531-.192-.972-.192h-2.402V.932h2.498c.424 0 .727-.062.911-.185C-.093.623 0 .419 0 .135Zm-.95 2.396h-4.44v-6.835h1.705v2.182H-.95c.896 0 1.562.187 2 .561.438.374.656.944.656 1.711v.111c0 .766-.218 1.336-.656 1.71-.438.374-1.104.56-2 .56" style="fill:#000;fill-opacity:1;fill-rule:nonzero;stroke:none" transform="translate(119.407 12.757)"/><path d="m0 0 1.357 3.063.182.524h.134l.181-.524L3.202 0Zm.287 4.319-3.124-6.836h1.73l.542 1.224h4.329l.537-1.224h1.845L3.021 4.319Z" style="fill:#000;fill-opacity:1;fill-rule:nonzero;stroke:none" transform="translate(125.764 10.834)"/><path d="M0 0h-.074l-.445.945L-3.3 6.113h-3.217V-.723h1.706v6.114h.08l.444-.951 2.781-5.163h3.217v6.836H0Zm-3.852 6.957-.931.282c.145.48.34.828.581 1.048.244.22.556.329.939.329.25 0 .504-.05.757-.146.257-.098.48-.194.674-.289.191-.096.338-.144.437-.144.17 0 .301.04.391.122.093.082.168.229.231.439l.926-.154c-.185-.54-.387-.914-.604-1.121-.219-.207-.522-.31-.911-.31-.25 0-.502.048-.756.145a7.742 7.742 0 0 0-.669.29c-.194.096-.343.144-.447.144a.464.464 0 0 1-.347-.133c-.083-.088-.175-.255-.271-.502" style="fill:#000;fill-opacity:1;fill-rule:nonzero;stroke:none" transform="translate(141.394 9.04)"/><path d="m0 0 1.357 3.063.182.524h.134l.181-.524L3.202 0Zm3.021 4.319H.287l-3.124-6.836h1.73l.542 1.224h4.329l.537-1.224h1.845z" style="fill:#000;fill-opacity:1;fill-rule:nonzero;stroke:none" transform="translate(148.91 10.834)"/></g></svg>